<svg width="208" height="110" viewBox="0 0 208 110" fill="none" xmlns="http://www.w3.org/2000/svg">
<path d="M97.9443 44.659V54.2126C97.9543 55.0112 97.805 55.8037 97.5052 56.5438C97.2054 57.2839 96.7611 57.9566 96.1984 58.5227C95.6726 59.0893 95.0358 59.5413 94.3276 59.8503C93.6195 60.1594 92.8552 60.3189 92.0827 60.3189C91.3102 60.3189 90.546 60.1594 89.8378 59.8503C89.1297 59.5413 88.4928 59.0893 87.9671 58.5227C87.4043 57.9566 86.96 57.2839 86.6602 56.5438C86.3604 55.8037 86.2112 55.0112 86.2212 54.2126V44.659C86.2212 44.6429 86.2212 44.6268 86.2212 44.6107V31.6194H85.5234C84.3296 31.6194 83.1846 32.0942 82.3404 32.9393C81.4962 33.7844 81.0219 34.9306 81.0219 36.1258V54.2126C81.0319 55.0112 80.8827 55.8037 80.5829 56.5438C80.2831 57.2839 79.8388 57.9566 79.276 58.5227C78.7503 59.0893 78.1134 59.5413 77.4053 59.8503C76.6971 60.1594 75.9329 60.3189 75.1604 60.3189C74.3879 60.3189 73.6236 60.1594 72.9155 59.8503C72.2074 59.5413 71.5705 59.0893 71.0448 58.5227C69.9984 57.4655 69.3819 56.0567 69.3149 54.5699V40.1655H68.6204C67.4265 40.1655 66.2816 40.6403 65.4374 41.4854C64.5932 42.3305 64.1189 43.4767 64.1189 44.6719V49.4809H64.1028V54.2126C64.1028 54.3349 64.1028 54.4476 64.1189 54.5667V64.0881C64.1439 64.7136 64.0385 65.3375 63.8093 65.92C63.5801 66.5024 63.2322 67.0307 62.7878 67.4711C62.1008 68.1796 61.1938 68.6335 60.2155 68.7586H60.1512C59.4654 68.8434 58.8343 69.1762 58.3766 69.6943C57.9188 70.2125 57.666 70.8802 57.6657 71.5719V73.8026H59.5145C62.0838 73.8473 64.5656 72.869 66.4147 71.0827C68.3439 69.2543 69.3085 66.8981 69.3085 64.0849V63.6954C71.0608 64.7878 73.0898 65.3532 75.154 65.3241C76.6216 65.3548 78.0798 65.0816 79.4371 64.5216C80.7943 63.9616 82.0213 63.1269 83.0412 62.0698C83.2502 61.8574 83.4399 61.6353 83.6296 61.4261C83.8161 61.6482 84.0058 61.8703 84.2148 62.0698C86.3055 64.1524 89.1349 65.3215 92.0843 65.3215C95.0337 65.3215 97.8631 64.1524 99.9539 62.0698C100.985 61.0406 101.799 59.8137 102.346 58.4626C102.893 57.1115 103.162 55.6638 103.137 54.2062V40.1623H102.439C101.248 40.164 100.106 40.6382 99.2639 41.481C98.4213 42.3239 97.9468 43.4666 97.9443 44.659Z" fill="#B2B2B2"/>
<path d="M203.269 43.4259C202.091 42.2129 200.679 41.2523 199.119 40.6027C197.558 39.953 195.882 39.6279 194.193 39.647C190.754 39.6404 187.453 40.9981 185.013 43.4227C182.7 45.6281 181.341 48.6513 181.225 51.8465C181.225 51.9334 181.225 54.2059 181.225 54.2059C181.235 55.0045 181.086 55.797 180.786 56.5371C180.486 57.2772 180.042 57.9499 179.479 58.516C178.953 59.0826 178.317 59.5346 177.608 59.8437C176.9 60.1527 176.136 60.3123 175.363 60.3123C174.591 60.3123 173.827 60.1527 173.119 59.8437C172.41 59.5346 171.774 59.0826 171.248 58.516C170.684 57.9518 170.237 57.2805 169.935 56.5416C169.633 55.8026 169.482 55.0108 169.489 54.2124V40.162H168.795C167.601 40.162 166.456 40.6368 165.612 41.4819C164.767 42.327 164.293 43.4733 164.293 44.6684V54.2124C164.304 55.0107 164.155 55.8032 163.856 56.5433C163.556 57.2834 163.113 57.9562 162.55 58.5224C162.024 59.0891 161.387 59.5412 160.679 59.8503C159.97 60.1594 159.206 60.3189 158.433 60.3189C157.66 60.3189 156.896 60.1594 156.187 59.8503C155.479 59.5412 154.842 59.0891 154.316 58.5224C153.522 57.6823 142.419 40.1749 142.419 40.1749L157.637 29.5108L157.235 28.9411C156.547 27.9681 155.502 27.3077 154.329 27.1044C153.156 26.9011 151.95 27.1714 150.975 27.8563L138.474 36.7629C137.683 37.3326 137.141 38.1855 136.961 39.1446C136.782 40.1036 136.978 41.0951 137.509 41.9131L146.458 55.7864C146.624 56.0457 146.712 56.3474 146.712 56.6555C146.712 56.9636 146.624 57.2652 146.458 57.5246C146.227 57.8773 145.964 58.208 145.673 58.5128C145.156 59.0914 144.522 59.5527 143.813 59.8658C143.104 60.1789 142.336 60.3366 141.561 60.3282H138.403C137.629 60.3397 136.861 60.1853 136.151 59.8756C135.442 59.5658 134.806 59.1077 134.288 58.5321C133.721 57.966 133.274 57.2921 132.972 56.5502C132.67 55.8084 132.519 55.0135 132.529 54.2124C132.529 54.2124 132.529 52.7768 132.529 52.4227C132.543 50.7462 132.216 49.0844 131.568 47.5387C130.919 45.993 129.963 44.5958 128.757 43.4324C126.334 41.0135 123.051 39.6552 119.629 39.6552C116.207 39.6552 112.924 41.0135 110.5 43.4324C109.287 44.5877 108.324 45.98 107.669 47.523C107.015 49.0661 106.684 50.7271 106.697 52.4034C106.697 52.4291 106.697 52.4581 106.697 52.4871V52.5611C106.68 54.2514 107.011 55.9271 107.667 57.4846C108.324 59.042 109.292 60.4481 110.513 61.6158C112.021 63.1306 113.884 64.244 115.931 64.8545C117.979 65.465 120.146 65.5533 122.236 65.1114C124.029 64.7817 125.721 64.0402 127.178 62.9451C126.997 64.5735 126.307 66.1032 125.207 67.3164C123.822 68.7874 122.072 69.502 119.86 69.502C118.328 69.4779 116.829 69.0481 115.516 68.2563L114.629 67.7413C114.304 67.5429 113.955 67.3861 113.59 67.2745C112.849 67.0591 112.068 67.0233 111.31 67.1699C110.553 67.3166 109.841 67.6415 109.234 68.1179L108.713 68.5363L109.099 69.0803C109.452 69.5792 111.446 72.1511 116.057 73.8893C117.29 74.2842 118.575 74.4925 119.87 74.5073C123.603 74.5073 126.68 73.268 129.018 70.8185C130.831 68.9161 131.94 66.4827 132.336 63.56C134.136 64.7406 136.248 65.354 138.4 65.3207H141.561C143.021 65.346 144.47 65.0704 145.819 64.5111C147.168 63.9519 148.388 63.1208 149.403 62.0696C149.609 61.8572 149.802 61.6351 149.991 61.4258C150.094 61.5514 150.203 61.6705 150.313 61.7896L150.345 61.8411C150.422 61.9248 150.49 62.0117 150.57 62.0922C152.661 64.1796 155.494 65.3518 158.448 65.3518C161.401 65.3518 164.234 64.1796 166.325 62.0922C166.534 61.8797 166.724 61.6576 166.91 61.4484C167.1 61.6705 167.29 61.8926 167.499 62.0922C169.59 64.1796 172.423 65.3518 175.376 65.3518C178.33 65.3518 181.163 64.1796 183.254 62.0922C183.643 61.6705 184.001 61.2208 184.325 60.7467C184.524 60.9784 184.723 61.207 184.939 61.4291C186.086 62.6693 187.48 63.656 189.03 64.3261C190.58 64.9962 192.253 65.335 193.942 65.3207H194.36C196.047 65.3429 197.72 65.0105 199.27 64.3452C200.821 63.6799 202.215 62.6963 203.363 61.458C204.54 60.2701 205.471 58.8607 206.101 57.3112C206.732 55.7616 207.05 54.1024 207.038 52.4291C207.055 50.7507 206.73 49.0864 206.082 47.5382C205.434 45.9901 204.477 44.5908 203.269 43.4259ZM127.339 52.8025C127.296 54.7651 126.489 56.6331 125.088 58.0074C124.403 58.752 123.569 59.3436 122.64 59.7435C121.71 60.1434 120.708 60.3426 119.696 60.3282C117.644 60.2993 115.683 59.4724 114.228 58.0222C112.774 56.5721 111.94 54.6125 111.902 52.5579C111.903 51.9167 111.98 51.278 112.134 50.6555C112.329 49.8674 112.655 49.1177 113.098 48.4377C113.423 47.9402 113.798 47.4775 114.217 47.0568C114.921 46.3153 115.769 45.7269 116.709 45.3281C117.65 44.9294 118.662 44.7289 119.683 44.7393C120.693 44.723 121.695 44.9195 122.624 45.316C123.553 45.7125 124.388 46.3001 125.076 47.0407C126.476 48.4216 127.283 50.2945 127.326 52.2617L127.339 52.8025ZM199.591 58.0074C198.906 58.7517 198.071 59.343 197.142 59.7429C196.213 60.1428 195.21 60.3422 194.199 60.3282C192.145 60.2985 190.183 59.47 188.727 58.0181C187.272 56.5662 186.438 54.6046 186.402 52.5482C186.394 51.5179 186.596 50.4968 186.997 49.5475C187.397 48.5983 187.987 47.7409 188.73 47.0279C189.424 46.2781 190.266 45.6815 191.203 45.2764C192.141 44.8712 193.152 44.6663 194.173 44.6749C195.185 44.6624 196.188 44.8629 197.117 45.2632C198.047 45.6636 198.882 46.2549 199.569 46.9989C201.029 48.4596 201.851 50.4401 201.855 52.5065C201.859 54.573 201.045 56.5568 199.591 58.0235V58.0074Z" fill="#B2B2B2"/>
<path d="M98.6351 31.6289H89.5164V32.3242C89.5164 33.5194 89.9907 34.6656 90.8349 35.5107C91.6791 36.3558 92.8241 36.8306 94.0179 36.8306H103.14V36.1224C103.136 34.9289 102.66 33.7855 101.816 32.9431C100.971 32.1007 99.8273 31.6281 98.6351 31.6289Z" fill="#B2B2B2"/>
<path d="M64.9681 31.6289H62.0164V32.3242C62.0164 33.5194 62.4907 34.6656 63.3349 35.5107C64.1791 36.3558 65.324 36.8306 66.5179 36.8306H69.4664V36.1224C69.463 34.9301 68.9876 33.7876 68.1445 32.9454C67.3014 32.1031 66.1592 31.6298 64.9681 31.6289Z" fill="#B2B2B2"/>
<path d="M164.791 31.6292H161.84V32.3244C161.84 33.5196 162.314 34.6658 163.158 35.5109C164.002 36.3561 165.147 36.8308 166.341 36.8308H169.29V36.1227C169.286 34.9303 168.811 33.7879 167.968 32.9456C167.125 32.1034 165.982 31.63 164.791 31.6292Z" fill="#B2B2B2"/>
<path d="M138.419 34.8351L145.866 29.5626L145.461 28.9929C144.77 28.0216 143.723 27.3637 142.549 27.1634C141.375 26.9631 140.17 27.2367 139.197 27.9242L131.754 33.1967L132.152 33.76C132.842 34.7333 133.889 35.393 135.064 35.5946C136.238 35.7961 137.445 35.523 138.419 34.8351Z" fill="#B2B2B2"/>
<path d="M81.9737 79.41H81.2888C80.8928 79.4095 80.5024 79.5046 80.1509 79.6873C79.7994 79.8699 79.4971 80.1348 79.2696 80.4593L70.6043 92.8423L62.0547 80.5881C61.8005 80.2263 61.4635 79.9307 61.072 79.7257C60.6805 79.5208 60.2457 79.4125 59.8039 79.41H59.1126C58.7289 79.41 58.3609 79.5626 58.0895 79.8342C57.8182 80.1059 57.6657 80.4743 57.6657 80.8585V102.534H58.148C58.955 102.534 59.729 102.214 60.3 101.643C60.8709 101.072 61.1921 100.297 61.193 99.4892V86.3917L70.5174 99.412L79.9094 86.3659V99.3927C79.9111 100.226 80.2428 101.024 80.8316 101.613C81.4205 102.202 82.2185 102.533 83.0508 102.534H83.5331V80.9679C83.5344 80.7627 83.4949 80.5592 83.417 80.3694C83.339 80.1796 83.2242 80.0072 83.079 79.8623C82.9339 79.7173 82.7615 79.6027 82.5717 79.525C82.382 79.4474 82.1787 79.4083 81.9737 79.41Z" fill="#B2B2B2"/>
<path d="M112.789 84.9075C111.18 84.854 109.595 85.3152 108.265 86.224C108.112 85.9308 107.881 85.6855 107.597 85.5152C107.313 85.3448 106.988 85.256 106.658 85.2584H104.87V102.318H105.352C106.176 102.318 106.967 101.991 107.55 101.408C108.133 100.825 108.461 100.034 108.462 99.2089V92.5974C108.457 92.0436 108.57 91.4951 108.791 90.9877C109.013 90.4803 109.339 90.0252 109.748 89.6521C110.137 89.2455 110.605 88.9218 111.123 88.7006C111.64 88.4793 112.198 88.365 112.76 88.3646C113.297 88.3557 113.829 88.462 114.321 88.6763C114.813 88.8906 115.253 89.208 115.612 89.607C116.002 89.9984 116.309 90.4636 116.517 90.9754C116.725 91.4872 116.828 92.0353 116.821 92.5877V99.1928C116.821 100.018 117.149 100.81 117.732 101.394C118.315 101.978 119.106 102.305 119.931 102.305H120.413V92.5974C120.429 91.5891 120.242 90.5878 119.864 89.6533C119.486 88.7187 118.923 87.8699 118.21 87.1575C117.509 86.4307 116.666 85.856 115.733 85.469C114.801 85.0819 113.799 84.8908 112.789 84.9075Z" fill="#B2B2B2"/>
<path d="M165.798 98.9389C165.265 98.8012 164.78 98.5195 164.396 98.1245C164.088 97.8201 163.847 97.4548 163.688 97.0518C163.529 96.6489 163.456 96.2173 163.473 95.7844V88.7608H167.911V88.278C167.911 87.4872 167.597 86.7287 167.039 86.1692C166.48 85.6097 165.723 85.295 164.933 85.2941H163.473V82.5452C163.472 81.7205 163.143 80.9301 162.561 80.3473C161.978 79.7644 161.188 79.4366 160.364 79.4358H159.882V95.7844C159.859 96.6851 160.026 97.5806 160.371 98.4125C160.717 99.2444 161.234 99.9941 161.888 100.613C162.521 101.225 163.269 101.707 164.088 102.03C164.908 102.353 165.783 102.511 166.663 102.496H167.949V101.569C167.939 100.952 167.721 100.356 167.331 99.8788C166.94 99.4014 166.4 99.0702 165.798 98.9389Z" fill="#B2B2B2"/>
<path d="M192.806 99.1188H192.761C192.083 99.033 191.454 98.7198 190.977 98.2304C190.67 97.9254 190.43 97.5599 190.272 97.157C190.113 96.7542 190.04 96.3229 190.057 95.8903V82.4451C190.056 81.6204 189.727 80.83 189.144 80.2472C188.562 79.6643 187.772 79.3365 186.948 79.3357H186.466V95.8807C186.443 96.7814 186.609 97.6769 186.955 98.5088C187.301 99.3407 187.818 100.09 188.472 100.709C189.752 101.945 191.469 102.622 193.247 102.592H194.533V101.05C194.529 100.573 194.352 100.114 194.034 99.7581C193.716 99.4025 193.28 99.1752 192.806 99.1188Z" fill="#B2B2B2"/>
<path d="M136.001 86.784C135.701 86.5545 135.386 86.3449 135.059 86.1563C133.677 85.36 132.108 84.9456 130.513 84.9557C129.34 84.9419 128.177 85.1661 127.093 85.6148C126.009 86.0635 125.028 86.7273 124.207 87.5662C123.373 88.3841 122.71 89.3607 122.257 90.4385C121.804 91.5163 121.571 92.6737 121.571 93.843C121.571 95.0122 121.804 96.1696 122.257 97.2474C122.71 98.3253 123.373 99.3018 124.207 100.12C125.028 100.959 126.009 101.622 127.093 102.071C128.177 102.52 129.34 102.744 130.513 102.73C132.095 102.724 133.648 102.299 135.014 101.501C135.268 101.356 135.509 101.201 135.744 101.037C135.619 102.164 135.142 103.223 134.381 104.063C133.909 104.566 133.334 104.962 132.695 105.223C132.056 105.484 131.369 105.605 130.68 105.576C129.618 105.56 128.58 105.264 127.67 104.716L127.056 104.359C126.83 104.223 126.588 104.115 126.336 104.037C125.823 103.89 125.283 103.865 124.76 103.967C124.236 104.068 123.744 104.292 123.323 104.62L122.963 104.909L123.23 105.286C123.474 105.63 124.854 107.41 128.053 108.614C128.906 108.886 129.794 109.03 130.689 109.042C133.262 109.042 135.403 108.183 137.02 106.49C138.638 104.797 139.432 102.531 139.432 99.7109V85.2776H138.265C137.78 85.2735 137.306 85.4148 136.902 85.6833C136.499 85.9518 136.185 86.3352 136.001 86.784ZM135.86 93.8204C135.87 94.5307 135.736 95.2356 135.465 95.8924C135.195 96.5492 134.794 97.1442 134.287 97.6412C133.813 98.1572 133.236 98.5672 132.592 98.8445C131.949 99.1218 131.255 99.2602 130.554 99.2507C129.142 99.2162 127.8 98.6305 126.813 97.6186C125.827 96.6067 125.275 95.2488 125.275 93.8349C125.275 92.421 125.827 91.0631 126.813 90.0512C127.8 89.0394 129.142 88.4536 130.554 88.4192C131.252 88.4063 131.945 88.5404 132.588 88.8126C133.232 89.0849 133.81 89.4893 134.287 89.9996C134.794 90.4968 135.195 91.0918 135.465 91.7485C135.735 92.4053 135.87 93.1102 135.86 93.8204Z" fill="#B2B2B2"/>
<path d="M99.2042 86.7551C98.9254 86.545 98.6344 86.3516 98.3329 86.1757C96.946 85.3513 95.364 84.9134 93.751 84.9075C92.5769 84.8949 91.4125 85.121 90.3282 85.5719C89.2439 86.0228 88.2622 86.6892 87.4425 87.5308C86.608 88.3488 85.9449 89.3253 85.4923 90.4032C85.0397 91.481 84.8065 92.6384 84.8065 93.8076C84.8065 94.9768 85.0397 96.1343 85.4923 97.2121C85.9449 98.2899 86.608 99.2665 87.4425 100.084C88.2662 100.917 89.2498 101.575 90.3339 102.017C91.418 102.46 92.5804 102.678 93.751 102.66C95.3358 102.661 96.8915 102.233 98.2525 101.42C98.5822 101.228 98.8981 101.013 99.1978 100.776C99.3792 101.226 99.69 101.612 100.091 101.885C100.491 102.158 100.964 102.305 101.449 102.309H102.603V85.2776H101.394C100.924 85.2803 100.465 85.422 100.076 85.6849C99.6863 85.9478 99.383 86.3201 99.2042 86.7551ZM99.0949 93.8044C99.1057 94.5118 98.9725 95.214 98.7032 95.8681C98.434 96.5223 98.0345 97.1147 97.529 97.6091C97.0548 98.1251 96.4772 98.5351 95.834 98.8124C95.1907 99.0897 94.4963 99.2281 93.796 99.2185C92.3741 99.1995 91.0156 98.6264 90.0088 97.6209C89.0021 96.6155 88.4264 95.2568 88.4039 93.8334C88.3981 93.121 88.5376 92.4149 88.8141 91.7585C89.0905 91.102 89.498 90.509 90.0116 90.0158C90.4895 89.4945 91.0711 89.0792 91.719 88.7964C92.3669 88.5137 93.0667 88.3699 93.7735 88.3742C94.4737 88.3654 95.1679 88.5042 95.811 88.7815C96.4541 89.0587 97.0318 89.4683 97.5065 89.9836C98.0161 90.4795 98.4196 91.0739 98.6926 91.7307C98.9657 92.3875 99.1025 93.093 99.0949 93.8044Z" fill="#B2B2B2"/>
<path d="M206.06 93.7753C205.489 92.9869 204.772 92.3159 203.947 91.799C203.246 91.3612 202.539 90.9427 201.848 90.5597C201.312 90.2681 200.813 89.9125 200.362 89.5007C200.041 89.2078 200.041 89.0211 200.041 88.9599C200.038 88.8859 200.055 88.8126 200.089 88.7467C200.122 88.6809 200.172 88.6246 200.234 88.5833C200.409 88.423 200.639 88.3365 200.877 88.3419C200.972 88.3421 201.067 88.3518 201.16 88.3709L201.401 88.4288L201.584 88.4739C202.005 88.553 202.438 88.5447 202.855 88.4495C203.273 88.3542 203.667 88.1741 204.012 87.9202C204.012 87.9202 204.764 87.3376 204.738 86.9352V86.7775L204.439 86.4202C204.015 85.9303 203.489 85.5384 202.898 85.2717C202.308 85.0049 201.666 84.8696 201.018 84.8752C199.854 84.8366 198.715 85.2271 197.819 85.9728C197.39 86.3229 197.044 86.7648 196.809 87.2662C196.573 87.7676 196.452 88.3156 196.456 88.8698C196.443 89.9058 196.809 90.9107 197.485 91.6959C198.07 92.383 198.768 92.9653 199.549 93.418C200.224 93.8172 200.902 94.2163 201.587 94.6251C202.125 94.9407 202.606 95.3456 203.009 95.8225C203.309 96.1958 203.461 96.6668 203.436 97.1455C203.422 97.4094 203.35 97.667 203.226 97.9001C203.102 98.1332 202.927 98.336 202.716 98.4942C202.18 98.9709 201.481 99.2223 200.764 99.1959C199.88 99.1959 199.018 98.6744 198.192 97.6573C197.69 96.9792 197.129 96.3479 196.514 95.771L196.147 95.491L195.851 95.8451C195.367 96.4156 195.093 97.1345 195.073 97.8826C195.031 99.6594 196.485 100.979 196.61 101.101C196.988 101.449 197.414 101.742 197.874 101.971C198.795 102.433 199.814 102.669 200.845 102.659C202.452 102.688 204.007 102.085 205.176 100.979C205.763 100.454 206.231 99.8081 206.548 99.0863C206.865 98.3645 207.024 97.5831 207.015 96.7946C207.026 95.712 206.691 94.6542 206.06 93.7753Z" fill="#B2B2B2"/>
<path d="M184.022 88.0041C182.196 85.9698 179.945 84.9558 177.373 84.9558C176.175 84.9306 174.984 85.149 173.872 85.5977C172.761 86.0464 171.752 86.7161 170.907 87.5663C170.068 88.3659 169.402 89.3292 168.949 90.3966C168.497 91.464 168.268 92.6128 168.276 93.7723C168.272 94.9398 168.503 96.0962 168.956 97.172C169.41 98.2478 170.075 99.221 170.913 100.033C171.712 100.885 172.678 101.563 173.751 102.025C174.824 102.487 175.98 102.723 177.148 102.718H177.437C178.664 102.728 179.879 102.472 180.998 101.966C182.117 101.46 183.112 100.717 183.916 99.7883L184.044 99.6467L184.064 99.6242L184.083 99.6016L184.459 99.1639L184.118 98.842C183.558 98.3567 182.869 98.0457 182.135 97.9471C181.556 97.8377 180.794 98.0244 179.848 98.5072C178.959 98.9566 177.983 99.2081 176.987 99.2444C176.279 99.2211 175.589 99.022 174.977 98.665L184.839 88.9182L184.022 88.0041ZM172.466 96.1896C172.063 95.4082 171.858 94.5391 171.871 93.6596C171.929 92.2878 172.499 90.9875 173.467 90.0151C174.435 89.0427 175.732 88.4688 177.103 88.4064C177.999 88.3952 178.883 88.61 179.675 89.0309L172.466 96.1896Z" fill="#B2B2B2"/>
<path d="M149.505 84.9075C148.329 84.8932 147.162 85.1184 146.076 85.5694C144.989 86.0203 144.005 86.6877 143.184 87.5309C142.345 88.3305 141.679 89.2938 141.227 90.3611C140.774 91.4285 140.545 92.5774 140.554 93.7368C140.547 94.8975 140.771 96.0478 141.213 97.1209C141.655 98.1941 142.305 99.1686 143.126 99.9879C143.922 100.844 144.888 101.523 145.961 101.983C147.035 102.443 148.193 102.674 149.361 102.66H149.65C150.818 102.675 151.977 102.444 153.051 101.982C154.124 101.52 155.089 100.837 155.881 99.9782C156.696 99.1563 157.34 98.1811 157.777 97.1088C158.213 96.0365 158.434 94.8883 158.425 93.7304C158.434 92.575 158.209 91.4297 157.763 90.364C157.317 89.2983 156.659 88.3344 155.83 87.5309C155.01 86.6847 154.026 86.0154 152.939 85.5642C151.851 85.1131 150.683 84.8896 149.505 84.9075ZM154.836 93.8044C154.845 94.5127 154.709 95.2152 154.438 95.8693C154.166 96.5234 153.765 97.1153 153.258 97.6091C152.783 98.1251 152.206 98.5351 151.563 98.8124C150.919 99.0897 150.225 99.2281 149.525 99.2186C148.103 99.1995 146.744 98.6264 145.737 97.6209C144.731 96.6155 144.155 95.2568 144.133 93.8334C144.127 93.121 144.266 92.4149 144.543 91.7585C144.819 91.102 145.227 90.509 145.74 90.0158C146.22 89.4965 146.802 89.0833 147.451 88.8028C148.099 88.5223 148.799 88.3807 149.505 88.3871C150.206 88.3785 150.9 88.5174 151.543 88.7946C152.186 89.0719 152.764 89.4814 153.238 89.9965C153.748 90.4901 154.153 91.082 154.427 91.7365C154.702 92.391 154.841 93.0945 154.836 93.8044Z" fill="#B2B2B2"/>
<path d="M22.3153 28.3539C23.9311 28.3539 25.5312 28.0317 27.024 27.4058C28.5168 26.7798 29.8731 25.8623 31.0155 24.7058C32.1579 23.5492 33.064 22.1762 33.6819 20.6651C34.2999 19.1541 34.6177 17.5347 34.6171 15.8993V0C31.3541 0.00116651 28.2251 1.31385 25.9181 3.64942C23.6112 5.98498 22.3153 9.15219 22.3153 12.4546V28.3539Z" fill="#2FAC66"/>
<path d="M22.4646 28.3538C16.6099 28.3744 10.9934 30.6657 6.80585 34.7418C2.61832 38.8179 0.188987 44.3584 0.0328816 50.1887C0.0328816 50.3678 0.0328816 50.5381 0.0328816 50.7171V59.5079C2.17076 59.5023 4.22064 58.6592 5.73972 57.1606C7.25879 55.6621 8.12513 53.6284 8.1516 51.4988V51.215C8.31932 48.4333 9.30062 45.7614 10.9745 43.5287C12.6484 41.296 14.9416 39.6001 17.5714 38.6502C20.2012 37.7003 23.0526 37.5379 25.774 38.183C28.4953 38.8282 30.9677 40.2526 32.8861 42.2808C34.8045 44.3089 36.0851 46.852 36.5699 49.5965C37.0548 52.3409 36.7228 55.1668 35.6147 57.7255C34.5067 60.2842 32.6711 62.4639 30.3344 63.9959C27.9977 65.5278 25.2619 66.345 22.4646 66.3466H7.01621C5.15598 66.3466 3.37194 67.0827 2.05656 68.3931C0.741175 69.7034 0.00219203 71.4806 0.00219203 73.3338V86.4347C-0.0393805 89.3987 0.510748 92.3413 1.6206 95.0917C2.73046 97.842 4.37791 100.345 6.46725 102.456C8.55659 104.566 11.0461 106.242 13.7913 107.386C16.5364 108.53 19.4824 109.119 22.458 109.119C25.4336 109.119 28.3796 108.53 31.1247 107.386C33.8699 106.242 36.3594 104.566 38.4488 102.456C40.5381 100.345 42.1856 97.842 43.2954 95.0917C44.4053 92.3413 44.9554 89.3987 44.9138 86.4347V50.7302C44.8976 44.8028 42.5277 39.1226 38.3215 34.9301C34.1153 30.7376 28.4147 28.3733 22.4646 28.3538Z" fill="#F9B233"/>
<path d="M38.2725 84.2026H38.0715C37.5556 84.2714 37.0831 84.5315 36.7458 84.9325C36.4084 85.3335 36.2301 85.8469 36.2454 86.3733V86.5899C36.2454 93.2212 31.4398 98.8933 25.0309 99.7067C24.9347 99.7067 24.677 99.7332 24.3581 99.7465C23.8054 99.7576 23.2797 99.9905 22.8967 100.394C22.5137 100.797 22.3047 101.338 22.3157 101.897C22.3267 102.457 22.5568 102.988 22.9554 103.376C23.354 103.764 23.8884 103.975 24.4411 103.964H24.5416C25.0877 103.937 25.5464 103.907 25.6862 103.884C34.0698 102.753 40.3389 95.2991 40.3389 86.643V86.2981C40.3389 85.7482 40.123 85.2209 39.7388 84.832C39.3545 84.4432 38.8334 84.2247 38.29 84.2247" fill="#FBCA72"/>
</svg>
