<svg width="129" height="74" viewBox="0 0 129 74" fill="none" xmlns="http://www.w3.org/2000/svg">
<path d="M128.334 56.32H127.914C127.914 25.4966 102.81 0.419846 71.9525 0.419846L0.00715637 0.419846V-7.62939e-06L71.9525 -7.62939e-06C103.041 -7.62939e-06 128.334 25.2652 128.334 56.32Z" fill="#FCB333"/>
<path d="M128.377 56.2795H127.957C127.957 33.0611 105.993 13.8934 85.3286 7.64804C80.8508 6.42903 76.2393 5.66327 71.6326 5.37224L70.9281 5.3293C69.9561 5.26966 68.9507 5.20764 67.962 5.12653C65.421 4.9166 59.0566 4.62557 50.999 4.25581C40.7992 3.78825 28.1014 3.20618 17.9637 2.54777C0.0454712 1.38363 0.0454712 0.62265 0.0454712 0.167015H0.46579C0.46579 0.14793 0.458618 0.13361 0.45623 0.131226C1.41149 1.56255 32.4646 2.98671 51.0181 3.83596C59.0805 4.20571 65.4473 4.49675 67.9954 4.70668C68.9793 4.78779 69.9823 4.84981 70.9519 4.90944L71.6564 4.95239C76.2918 5.24342 80.9296 6.01395 85.4408 7.24249C106.256 13.5331 128.373 32.8559 128.373 56.2771L128.377 56.2795Z" fill="#FCB333"/>
<path d="M128.334 56.32H127.914C127.914 39.5998 110.504 25.1792 94.2124 17.2593C86.5846 13.5522 78.3814 11.262 69.827 10.4533L69.6622 10.4366C67.4795 10.2339 65.6669 10.0359 63.9546 9.81164C61.1151 9.44188 55.8826 8.94092 49.8215 8.36362C23.5686 5.85882 0.00238037 3.34924 0.00238037 0.207493H0.422699C0.422699 0.925537 2.66756 2.43558 17.7057 4.47759C27.6595 5.8278 39.9704 7.00387 49.8621 7.94616C55.9256 8.52584 61.1628 9.02441 64.0095 9.39656C65.717 9.61841 67.5248 9.81641 69.7004 10.0192L69.8676 10.0359C78.4721 10.8517 86.7232 13.1538 94.3963 16.8847C110.803 24.8596 128.334 39.4065 128.334 56.3223V56.32Z" fill="#FCB333"/>
<path d="M128.334 56.32H127.914C127.914 42.0951 108.14 28.8148 89.6344 21.1263C83.1601 18.4378 76.3157 16.6081 69.2898 15.6944L68.6808 15.6157C65.027 15.16 62.0274 14.7283 59.2429 14.2607C56.6517 13.8241 53.122 13.3017 49.0383 12.6958C24.2302 9.01253 0.00726318 5.01677 0.00726318 0.209919H0.427582C0.427582 5.05732 30.8956 9.58029 49.1004 12.2807C53.1865 12.8866 56.7162 13.4115 59.3145 13.848C62.0943 14.3156 65.089 14.745 68.7357 15.2006L69.3471 15.2793C76.4089 16.1978 83.2915 18.0346 89.7992 20.7398C95.5499 23.1301 106.528 28.2161 115.417 35.4323C123.99 42.3933 128.339 49.4211 128.339 56.32H128.334Z" fill="#FCB333"/>
<path d="M128.334 56.32H127.914C127.914 42.0808 98.4131 29.9336 85.7297 25.3725C79.831 23.2518 73.6958 21.725 67.4938 20.8376L67.3314 20.8138C62.8465 20.1744 58.3424 19.3848 53.9435 18.4664C52.3935 18.142 50.6574 17.7889 48.7803 17.4072C30.5372 13.6906 0.00238037 7.47148 0.00238037 0.209919H0.422699C0.422699 7.12796 31.9343 13.5474 48.8639 16.9945C50.7409 17.3762 52.4795 17.7317 54.0294 18.0537C58.4188 18.9697 62.9133 19.7593 67.3911 20.3963L67.5535 20.4201C73.7818 21.3123 79.9456 22.8462 85.8706 24.9765C93.5222 27.7294 104.52 32.1951 113.454 37.8488C123.326 44.0965 128.334 50.3109 128.334 56.3176V56.32Z" fill="#FCB333"/>
<path d="M128.334 56.32H127.914C127.914 43.5169 90.7138 32.3311 78.4888 28.655C75.2911 27.6936 71.9955 26.9493 68.6926 26.4436C60.7855 25.2318 52.8592 23.5953 45.1312 21.5795C24.1203 16.0976 0.00238037 8.71672 0.00238037 0.209919H0.422699C0.422699 9.48248 32.9803 17.9774 45.2363 21.174C52.95 23.1874 60.8643 24.8191 68.7547 26.0285C72.0767 26.5366 75.3914 27.2857 78.6082 28.2542C90.9072 31.9518 128.332 43.2067 128.332 56.32H128.334Z" fill="#FCB333"/>
<path d="M128.334 56.32H127.914C127.914 47.0546 95.4351 38.5764 83.2078 35.3845C78.9211 34.2657 70.2831 32.5386 62.6626 31.0142C56.5226 29.7857 51.2209 28.7265 49.8 28.2995C37.4843 24.5995 0.00476074 13.3351 0.00476074 0.212261H0.425056C0.425056 13.0226 37.6778 24.2202 49.9218 27.8987C51.3236 28.321 56.6182 29.3778 62.7462 30.6039C70.3715 32.1307 79.0166 33.8578 83.3153 34.9814C104.276 40.4538 128.334 47.8227 128.334 56.3223V56.32Z" fill="#FCB333"/>
<path d="M128.334 56.32H127.914C127.914 49.4044 96.4071 42.9849 79.4775 39.5354C76.361 38.9009 73.6695 38.3522 71.5489 37.8846C68.9673 37.3145 63.6178 36.4939 63.5725 36.4867C55.4623 35.4442 47.431 33.4428 39.7005 30.5348C24.8725 24.9598 -1.52588e-05 13.6047 -1.52588e-05 0.207542H0.420303C0.420303 13.3542 25.1233 24.6044 39.8486 30.1436C47.548 33.0372 55.5483 35.0315 63.6274 36.0716C63.6656 36.0764 69.058 36.9066 71.6396 37.4743C73.7555 37.9419 76.4446 38.4905 79.5611 39.1251C97.8018 42.8418 128.332 49.0608 128.332 56.32H128.334Z" fill="#FCB333"/>
<path d="M128.334 56.32H127.914C127.914 50.1343 71.8691 42.67 61.557 41.556L61.3923 41.5369C52.986 40.6161 44.8878 38.5096 37.3245 35.2749C28.5695 31.532 0.00730896 17.944 0.00730896 0.207542H0.42762C0.42762 17.6863 28.7964 31.1717 37.4893 34.8884C45.0143 38.1065 53.0743 40.201 61.44 41.1194L61.6024 41.1385C62.2711 41.2101 128.337 48.9511 128.337 56.32H128.334Z" fill="#FCB333"/>
<path d="M128.334 56.32H127.914C127.914 55.6019 125.669 54.0919 110.633 52.0522C100.682 50.702 88.3712 49.526 78.4818 48.5837C75.499 48.2998 72.7598 48.0374 70.4027 47.8012C67.5346 47.5126 56.05 46.2387 54.4451 45.993C47.0491 44.8646 39.9276 42.6199 33.2814 39.323C17.1948 31.3458 0.00494385 16.88 0.00494385 0.212261H0.425247C0.425247 16.6891 17.4957 31.0262 33.47 38.9485C40.078 42.2262 47.1589 44.4591 54.512 45.5803C56.1121 45.8236 67.5823 47.0975 70.4481 47.3861C72.8052 47.6223 75.5444 47.8847 78.5248 48.1686C104.775 50.6734 128.337 53.1806 128.337 56.3223L128.334 56.32Z" fill="#FCB333"/>
<path d="M128.334 56.32H127.914C126.966 54.9244 95.9177 53.5003 77.369 52.651C69.0606 52.2693 62.4956 51.9687 60.1385 51.7588C59.262 51.6801 58.4811 51.6252 57.7551 51.5894C52.7758 51.3533 47.7942 50.5637 42.9438 49.2445C22.1264 42.9562 0.00494385 23.6334 0.00494385 0.207493H0.425247C0.425247 23.4306 22.3914 42.596 43.0608 48.8413C47.8753 50.151 52.8284 50.9358 57.7742 51.172C58.5074 51.2078 59.2931 51.2626 60.1767 51.3414C62.5266 51.5513 69.0845 51.8519 77.3905 52.2335C87.5902 52.7011 100.283 53.2832 110.421 53.9416C128.337 55.1057 128.337 55.8667 128.337 56.3223L128.334 56.32Z" fill="#FCB333"/>
<path d="M128.31 56.1101V56.5299L56.3866 56.5299C25.2977 56.5299 0.00482178 31.2647 0.00482178 0.209892H0.42514C0.42514 31.0333 25.5293 56.1101 56.3866 56.1101L128.31 56.1101Z" fill="#FCB333"/>
<path d="M6.46592 66.6144C6.46592 67.1523 6.6701 67.4212 7.07847 67.4212H7.58645C7.63625 67.4212 7.67111 67.4909 7.69103 67.6304C7.72091 67.7698 7.73586 68.0886 7.73586 68.5866C7.73586 69.0647 7.72091 69.3734 7.69103 69.5129C7.67111 69.6523 7.63625 69.722 7.58645 69.722H7.06353C5.97786 69.722 5.29558 69.3336 5.0167 68.5567C4.59836 68.9053 3.9858 69.0796 3.17902 69.0796C2.29255 69.0796 1.61027 68.8306 1.13218 68.3326C0.654086 67.8246 0.415039 67.0726 0.415039 66.0766C0.415039 65.5188 0.539543 64.9959 0.78855 64.5078C1.03756 64.0098 1.39115 63.6114 1.84932 63.3126C2.31746 63.0038 2.85033 62.8494 3.44795 62.8494H4.26967V61.8783H6.46592V66.6144ZM2.56646 66.0467C2.56646 66.5945 2.83539 66.8684 3.37325 66.8684C3.68202 66.8684 3.91608 66.8087 4.07545 66.6891C4.24477 66.5696 4.32943 66.4003 4.32943 66.1812V65.0307H3.56747C2.90013 65.0307 2.56646 65.3694 2.56646 66.0467Z" fill="#A7A9AC"/>
<path d="M8.4244 67.4212C8.63356 67.4212 8.79791 67.3714 8.91743 67.2718C9.03696 67.1622 9.09672 67.0128 9.09672 66.8236V64.4331H11.293V66.7788C11.293 67.2071 11.5171 67.4212 11.9653 67.4212H12.4434C12.543 67.4212 12.5928 67.8047 12.5928 68.5716C12.5928 69.3386 12.543 69.722 12.4434 69.722H11.8607C11.044 69.722 10.4812 69.5029 10.1724 69.0647C9.98318 69.2937 9.74912 69.4631 9.47023 69.5726C9.19134 69.6722 8.84273 69.722 8.4244 69.722H6.84071C6.74111 69.722 6.69131 69.3436 6.69131 68.5866C6.69131 67.8097 6.74111 67.4212 6.84071 67.4212H8.4244ZM7.18434 72.9342V71.0816H9.48517V72.9342H7.18434Z" fill="#A7A9AC"/>
<path d="M15.9394 66.9282C15.9394 67.7947 15.6805 68.477 15.1625 68.975C14.6546 69.473 13.9673 69.722 13.1008 69.722H11.6964C11.5968 69.722 11.547 69.3436 11.547 68.5866C11.547 67.8097 11.5968 67.4212 11.6964 67.4212H13.1008C13.3 67.4212 13.4593 67.3664 13.5788 67.2569C13.7083 67.1473 13.7731 67.0029 13.7731 66.8236V64.4331H15.9394V66.9282ZM13.1008 63.0885V61.2359H15.4016V63.0885H13.1008Z" fill="#A7A9AC"/>
<path d="M18.2873 60.1153H20.4985V69.722H18.2873V60.1153Z" fill="#A7A9AC"/>
<path d="M31.3227 67.4212C31.522 67.4212 31.6813 67.3714 31.8008 67.2718C31.9204 67.1722 31.9801 67.0278 31.9801 66.8385V64.4331H34.1913V66.7788C34.1913 67.2071 34.4104 67.4212 34.8487 67.4212H35.3268C35.4264 67.4212 35.4762 67.8097 35.4762 68.5866C35.4762 69.3436 35.4264 69.722 35.3268 69.722H34.7441C33.9274 69.722 33.3646 69.5029 33.0558 69.0647C32.8666 69.2937 32.6325 69.4631 32.3536 69.5726C32.0847 69.6722 31.7411 69.722 31.3227 69.722H26.6613C25.755 69.722 25.0577 69.478 24.5697 68.99C24.0816 68.5019 23.8376 67.8047 23.8376 66.8983V64.4331H26.0488V66.5995C26.0488 66.8784 26.1085 67.0875 26.2281 67.227C26.3476 67.3565 26.5468 67.4212 26.8257 67.4212H31.3227ZM31.1584 61.5944V63.4471H26.8556V61.5944H31.1584Z" fill="#A7A9AC"/>
<path d="M35.7175 67.4212C36.4545 67.4212 37.0721 67.3714 37.5701 67.2718C38.078 67.1722 38.6059 66.983 39.1538 66.7041L40.1099 66.1513C40.0303 65.8525 39.9107 65.6483 39.7514 65.5387C39.602 65.4292 39.3729 65.3744 39.0641 65.3744H35.6577L35.8818 63.1184H39.5422C40.1498 63.1184 40.6478 63.2329 41.0362 63.462C41.4247 63.6911 41.7534 64.0696 42.0223 64.5975C42.2912 65.1254 42.5353 65.8724 42.7544 66.8385L39.6767 68.6912C39.0492 69.0796 38.4366 69.3485 37.839 69.4979C37.2414 69.6473 36.4993 69.722 35.6129 69.722H34.582C34.4824 69.722 34.4326 69.3436 34.4326 68.5866C34.4326 67.8097 34.4824 67.4212 34.582 67.4212H35.7175ZM37.331 61.7588V59.9062H39.6319V61.7588H37.331Z" fill="#A7A9AC"/>
<path d="M46.9572 69.0796C46.9572 69.8963 46.7879 70.6185 46.4492 71.246C46.1205 71.8834 45.6474 72.3765 45.0299 72.7251C44.4223 73.0737 43.7102 73.248 42.8934 73.248H41.489L41.3097 70.9472H42.8038C43.4313 70.9472 43.9094 70.7878 44.2381 70.4691C44.5767 70.1603 44.746 69.7071 44.746 69.1095V64.4331H46.9572V69.0796Z" fill="#A7A9AC"/>
<path d="M53.6971 64.8515C54.0856 65.3096 54.3545 65.723 54.5039 66.0915C54.6533 66.46 54.728 66.8435 54.728 67.2419C54.728 67.979 54.474 68.5766 53.966 69.0348C53.4581 69.493 52.7559 69.722 51.8594 69.722H47.7956L47.6163 67.4212H51.5756C51.8046 67.4212 51.9839 67.3814 52.1134 67.3017C52.2529 67.222 52.3226 67.1124 52.3226 66.973C52.3226 66.8634 52.2927 66.7589 52.2329 66.6593C52.1831 66.5497 52.0835 66.4053 51.9341 66.226L49.4839 63.3425L51.0975 61.7438L53.6971 64.8515Z" fill="#A7A9AC"/>
<path d="M59.2219 69.722C58.3155 69.722 57.6183 69.478 57.1302 68.99C56.6422 68.5019 56.3981 67.8047 56.3981 66.8983V64.4331H58.6093V66.5995C58.6093 66.8784 58.6691 67.0875 58.7886 67.227C58.9081 67.3565 59.1073 67.4212 59.3862 67.4212H64.0924C64.3315 67.4212 64.5158 67.3814 64.6452 67.3017C64.7747 67.222 64.8395 67.1124 64.8395 66.973C64.8395 66.8435 64.8046 66.724 64.7349 66.6144C64.6751 66.4949 64.5755 66.3654 64.4361 66.226L61.3285 63.1931V61.46L67.1254 59.2637L67.708 61.4152L64.1373 62.7747L66.1094 64.7469C66.9461 65.5835 67.5736 66.1861 67.9919 66.5547C68.4202 66.9132 68.7688 67.1473 69.0377 67.2569C69.3067 67.3664 69.6154 67.4212 69.964 67.4212C70.0636 67.4212 70.1134 67.8097 70.1134 68.5866C70.1134 69.3436 70.0636 69.722 69.964 69.722C69.4063 69.722 68.963 69.6922 68.6343 69.6324C68.3056 69.5726 68.0068 69.4581 67.7379 69.2888C67.469 69.1194 67.1652 68.8605 66.8265 68.5119C66.6473 68.8904 66.3335 69.1892 65.8853 69.4083C65.4371 69.6175 64.9042 69.722 64.2867 69.722H59.2219Z" fill="#A7A9AC"/>
<path d="M73.4574 66.9282C73.4574 67.7947 73.1984 68.477 72.6805 68.975C72.1725 69.473 71.4853 69.722 70.6187 69.722H69.2143C69.1147 69.722 69.0649 69.3436 69.0649 68.5866C69.0649 67.8097 69.1147 67.4212 69.2143 67.4212H70.6187C70.8179 67.4212 70.9773 67.3664 71.0968 67.2569C71.2263 67.1473 71.2911 67.0029 71.2911 66.8236V64.4331H73.4574V66.9282ZM72.561 71.0816V72.9342H68.2581V71.0816H72.561Z" fill="#A7A9AC"/>
<path d="M82.8816 69.737C82.8816 69.3884 82.6724 69.2141 82.2541 69.2141H79.4005V66.1961C79.4005 65.2798 79.6644 64.5427 80.1923 63.9849C80.7302 63.4271 81.4523 63.1482 82.3587 63.1482H84.525L84.6595 65.3744H82.3886C82.1595 65.3744 81.9702 65.4491 81.8208 65.5985C81.6714 65.7379 81.5967 65.9322 81.5967 66.1812V66.9431H82.6127C83.4792 66.9431 84.1067 67.1622 84.4952 67.6005C84.8836 68.0388 85.0778 68.6663 85.0778 69.483C85.0778 70.1703 84.8936 70.7978 84.525 71.3655C84.1665 71.9432 83.6635 72.4014 83.0161 72.74C82.3686 73.0787 81.6415 73.248 80.8347 73.248H79.6843C78.3795 73.248 77.3686 72.8695 76.6514 72.1125C75.9442 71.3655 75.5907 70.3246 75.5907 68.99V65.9272H77.8018V68.9302C77.8018 69.6075 77.9562 70.1105 78.265 70.4392C78.5738 70.7778 79.0568 70.9472 79.7142 70.9472H80.8945C81.5519 70.9472 82.0449 70.8376 82.3736 70.6185C82.7123 70.3993 82.8816 70.1055 82.8816 69.737Z" fill="#A7A9AC"/>
<path d="M88.764 67.4212C88.8138 67.4212 88.8487 67.4909 88.8686 67.6304C88.8985 67.7698 88.9134 68.0886 88.9134 68.5866C88.9134 69.0647 88.8985 69.3734 88.8686 69.5129C88.8487 69.6523 88.8138 69.722 88.764 69.722H88.1664C87.2899 69.722 86.6226 69.473 86.1644 68.975C85.7162 68.477 85.4921 67.7648 85.4921 66.8385V60.1153H87.7033V66.6742C87.7033 66.9332 87.7531 67.1224 87.8527 67.2419C87.9523 67.3615 88.1116 67.4212 88.3308 67.4212H88.764Z" fill="#A7A9AC"/>
<path d="M97.5215 64.956C97.8701 65.3345 98.1191 65.7031 98.2685 66.0616C98.4279 66.4202 98.5075 66.7937 98.5075 67.1822C98.5075 67.9391 98.2486 68.5517 97.7306 69.0198C97.2227 69.488 96.5254 69.722 95.639 69.722H93.9059C93.3382 69.722 92.9148 69.7071 92.6359 69.6772C92.367 69.6473 92.128 69.5776 91.9188 69.4681C91.6897 69.5677 91.4108 69.6374 91.0821 69.6772C90.7634 69.7071 90.3451 69.722 89.8271 69.722H88.0193C87.9197 69.722 87.8699 69.3436 87.8699 68.5866C87.8699 67.8097 87.9197 67.4212 88.0193 67.4212H89.4088C89.2992 67.2818 89.2096 67.0925 89.1399 66.8535C89.0702 66.6144 89.0353 66.3754 89.0353 66.1363C89.0353 65.5885 89.1698 65.0855 89.4387 64.6274C89.7076 64.1692 90.0761 63.8106 90.5443 63.5516C91.0124 63.2827 91.5304 63.1482 92.0981 63.1482C92.4168 63.1482 92.7306 63.203 93.0393 63.3126L92.9646 63.2379L94.4736 61.6841L97.5215 64.956ZM95.5344 67.4212C96.0324 67.4212 96.2814 67.2668 96.2814 66.9581C96.2814 66.8385 96.2515 66.724 96.1918 66.6144C96.132 66.5049 96.0125 66.3604 95.8332 66.1812L94.7874 65.1054C94.877 65.3744 94.9218 65.6582 94.9218 65.9571C94.9218 66.2359 94.872 66.5098 94.7724 66.7788C94.6828 67.0377 94.5583 67.2519 94.3989 67.4212H95.5344ZM91.9337 67.4511C92.5812 67.1224 92.9049 66.6941 92.9049 66.1662C92.9049 65.9072 92.8202 65.6931 92.6509 65.5238C92.4816 65.3545 92.2575 65.2698 91.9786 65.2698C91.6997 65.2698 91.4756 65.3545 91.3062 65.5238C91.1469 65.6931 91.0672 65.9072 91.0672 66.1662C91.0672 66.714 91.356 67.1423 91.9337 67.4511Z" fill="#A7A9AC"/>
<path d="M105.364 66.6144C105.364 67.1523 105.568 67.4212 105.976 67.4212H106.484C106.534 67.4212 106.569 67.4909 106.589 67.6304C106.619 67.7698 106.634 68.0886 106.634 68.5866C106.634 69.0647 106.619 69.3734 106.589 69.5129C106.569 69.6523 106.534 69.722 106.484 69.722H105.961C104.876 69.722 104.193 69.3336 103.914 68.5567C103.496 68.9053 102.884 69.0796 102.077 69.0796C101.19 69.0796 100.508 68.8306 100.03 68.3326C99.5518 67.8246 99.3128 67.0726 99.3128 66.0766C99.3128 65.5188 99.4373 64.9959 99.6863 64.5078C99.9353 64.0098 100.289 63.6114 100.747 63.3126C101.215 63.0038 101.748 62.8494 102.346 62.8494H103.167V61.8783H105.364V66.6144ZM101.464 66.0467C101.464 66.5945 101.733 66.8684 102.271 66.8684C102.58 66.8684 102.814 66.8087 102.973 66.6891C103.142 66.5696 103.227 66.4003 103.227 66.1812V65.0307H102.465C101.798 65.0307 101.464 65.3694 101.464 66.0467Z" fill="#A7A9AC"/>
<path d="M106.784 67.4212C107.322 67.4212 107.591 67.1921 107.591 66.734V64.4331H109.757V66.734C109.757 67.1921 110.021 67.4212 110.549 67.4212C110.808 67.4212 111.003 67.3615 111.132 67.2419C111.262 67.1224 111.326 66.9531 111.326 66.734V64.4331H113.508V66.734C113.508 67.1921 113.752 67.4212 114.24 67.4212C114.738 67.4212 114.987 67.1921 114.987 66.734V64.4331H117.153V66.7041C117.153 66.9531 117.208 67.1373 117.317 67.2569C117.427 67.3664 117.596 67.4212 117.825 67.4212H118.423C118.523 67.4212 118.572 67.8097 118.572 68.5866C118.572 69.3436 118.523 69.722 118.423 69.722H117.855C116.919 69.722 116.311 69.5029 116.032 69.0647C115.684 69.5029 115.081 69.722 114.225 69.722C113.308 69.722 112.686 69.488 112.357 69.0198C112.168 69.2589 111.929 69.4382 111.64 69.5577C111.351 69.6673 110.983 69.722 110.534 69.722C110.046 69.722 109.648 69.6673 109.339 69.5577C109.03 69.4382 108.791 69.2589 108.622 69.0198C108.433 69.2589 108.189 69.4382 107.89 69.5577C107.601 69.6673 107.233 69.722 106.784 69.722H105.738C105.639 69.722 105.589 69.3436 105.589 68.5866C105.589 67.8097 105.639 67.4212 105.738 67.4212H106.784ZM113.328 58.8155V60.6084H111.386V58.8155H113.328ZM114.509 61.2359V63.0885H110.206V61.2359H114.509Z" fill="#A7A9AC"/>
<path d="M121.256 67.4212C121.445 67.4212 121.6 67.3664 121.719 67.2569C121.849 67.1473 121.914 67.0029 121.914 66.8236V64.4331H124.08V66.9282C124.08 67.7947 123.821 68.477 123.303 68.975C122.795 69.473 122.108 69.722 121.241 69.722H117.67C117.571 69.722 117.521 69.3436 117.521 68.5866C117.521 67.8097 117.571 67.4212 117.67 67.4212H121.256ZM122.123 71.0816V72.9342H117.82V71.0816H122.123Z" fill="#A7A9AC"/>
<path d="M127.786 69.0796C127.786 69.8963 127.616 70.6185 127.278 71.246C126.949 71.8834 126.476 72.3765 125.858 72.7251C125.251 73.0737 124.539 73.248 123.722 73.248H123.154L122.975 70.9472H123.632C124.26 70.9472 124.738 70.7878 125.067 70.4691C125.405 70.1603 125.575 69.7071 125.575 69.1095V64.4331H127.786V69.0796Z" fill="#A7A9AC"/>
</svg>
