<svg width="263" height="106" viewBox="0 0 263 106" fill="none" xmlns="http://www.w3.org/2000/svg">
<path d="M22.6965 13.7628H52.8646C53.5444 13.7628 54.0955 14.314 54.0955 14.9938V79.5986C54.0955 92.1288 43.9232 102.295 31.3991 102.295H22.6965C10.1663 102.295 0 92.1227 0 79.5986V36.4593C0 23.9291 10.1724 13.7628 22.6965 13.7628Z" fill="#FBB040"/>
<path opacity="0.31" d="M44.6336 70.0264C43.3108 70.155 42.3432 71.3369 42.3432 72.6659V72.9293C42.3432 81.0623 36.3598 88.0317 28.4166 89.0299C28.2941 89.0483 27.9756 89.0667 27.5776 89.0789C26.1874 89.134 25.0911 90.2793 25.0911 91.6695C25.0911 93.1454 26.3282 94.3274 27.8042 94.2539C28.484 94.2233 29.0535 94.1865 29.225 94.162C39.6424 92.7718 47.4263 83.6222 47.4263 72.9782V72.5557C47.4263 71.0675 46.1524 69.8794 44.6336 70.0264Z" fill="white"/>
<path d="M16.7192 6.34648V20.5364C16.7192 21.3632 17.3868 22.0307 18.2136 22.0307C19.0403 22.0307 19.7079 21.3632 19.7079 20.5364V6.34648H38.393V20.5425C38.393 21.3693 39.0605 22.0368 39.8873 22.0368C40.7141 22.0368 41.3816 21.3693 41.3816 20.5425V6.34648C41.3816 3.39459 38.987 1 36.0351 1H22.0718C19.12 1 16.7254 3.39459 16.7254 6.34648H16.7192Z" fill="#2DB674" stroke="#2DB674" stroke-width="0.75" stroke-miterlimit="10"/>
<path d="M259.24 39.3562C256.729 36.8452 253.661 35.5714 250.108 35.5591C246.654 35.5469 243.329 36.9187 240.873 39.3501C238.472 41.7324 237.192 44.5802 237.064 47.8138C237.064 47.8995 237.052 50.1839 237.052 50.1839C237.052 51.8558 236.476 53.2705 235.294 54.5137C234.136 55.7263 232.783 56.3204 231.154 56.3204C229.525 56.3204 228.171 55.7263 227.014 54.5137C225.832 53.2705 225.256 51.8558 225.256 50.1839V36.0736H224.552C222.053 36.0736 220.032 38.0946 220.032 40.5933V50.1839C220.032 51.8558 219.457 53.2705 218.275 54.5137C217.117 55.7263 215.764 56.3204 214.135 56.3204C212.506 56.3204 211.152 55.7263 209.995 54.5137C209.192 53.6686 198.016 36.0858 198.016 36.0858L213.314 25.3745L212.91 24.7988C211.471 22.7595 208.653 22.2695 206.614 23.7087L194.041 32.6563C192.381 33.8444 191.953 36.1226 193.061 37.8374L202.058 51.7762C202.401 52.309 202.401 52.9888 202.058 53.5216C201.837 53.8646 201.574 54.1953 201.268 54.5137C200.116 55.7202 198.769 56.3143 197.152 56.3204H193.974C192.344 56.3204 190.991 55.7263 189.834 54.5137C188.652 53.2705 188.076 51.8558 188.076 50.1839C188.076 50.1839 188.088 48.7385 188.088 48.3833C188.088 44.9109 186.808 41.8671 184.291 39.3501C181.774 36.833 178.687 35.553 175.117 35.553C171.547 35.553 168.46 36.8269 165.924 39.3439C163.389 41.861 162.103 44.8925 162.103 48.3589C162.103 48.3895 162.103 48.414 162.103 48.4446C162.103 48.4691 162.103 48.4936 162.103 48.5181C162.103 52.0456 163.389 55.1078 165.924 57.6248C168.46 60.1419 171.54 61.4158 175.092 61.4158C175.974 61.4158 176.85 61.3178 177.714 61.134C179.526 60.7972 181.192 60.0746 182.68 58.9599C182.423 60.7727 181.768 62.218 180.696 63.351C179.306 64.827 177.542 65.5496 175.319 65.5496C173.855 65.5496 172.379 65.1271 170.94 64.3003C170.805 64.2268 170.377 63.9757 170.046 63.7797C169.715 63.5837 169.366 63.4184 168.999 63.3081C168.558 63.1795 168.099 63.1122 167.639 63.1122C166.537 63.1122 165.49 63.4735 164.614 64.1533L164.093 64.5759L164.479 65.1209C164.834 65.6231 166.837 68.2076 171.479 69.953C172.863 70.3694 174.113 70.5777 175.313 70.5777C179.067 70.5777 182.166 69.3283 184.518 66.8664C186.343 64.9556 187.457 62.512 187.855 59.5724C189.625 60.7421 191.665 61.3423 193.955 61.3423H197.14C200.251 61.3361 202.903 60.2338 205.028 58.0719C205.236 57.8576 205.432 57.6371 205.622 57.4166C205.726 57.5391 205.836 57.6616 205.946 57.7841L205.977 57.8331V57.8208C206.057 57.9066 206.124 57.9923 206.204 58.0719C208.335 60.2399 210.999 61.3361 214.116 61.3423C217.24 61.3423 219.898 60.2399 222.029 58.0719C222.237 57.8576 222.427 57.6371 222.617 57.4166C222.807 57.6371 222.996 57.8637 223.205 58.0719C225.336 60.2399 228 61.3361 231.117 61.3423C234.241 61.3423 236.905 60.2399 239.03 58.0719C239.446 57.6493 239.807 57.2023 240.144 56.7429C240.34 56.9757 240.542 57.2023 240.763 57.4289C243.268 60.0256 246.318 61.3423 249.821 61.3423H250.243C253.783 61.3423 256.827 60.0317 259.301 57.4472C261.757 54.8873 263 51.8313 263 48.3772C263 44.9231 261.72 41.861 259.203 39.3439L259.24 39.3562ZM182.87 48.7814C182.803 50.7963 182.068 52.5172 180.61 54.0115C179.092 55.5671 177.316 56.3265 175.184 56.3265C173.053 56.3265 171.24 55.5671 169.672 53.9993C168.105 52.4315 167.345 50.6432 167.345 48.5242C167.345 47.8505 167.431 47.2197 167.578 46.6134C167.774 45.8234 168.092 45.0824 168.552 44.3842C168.864 43.9004 169.238 43.4411 169.679 43.0001C171.246 41.4323 173.047 40.6729 175.19 40.6729C177.334 40.6729 179.098 41.4323 180.617 42.9879C182.074 44.4822 182.809 46.2031 182.883 48.2364V48.7937L182.87 48.7814ZM255.541 54.0115C254.022 55.5671 252.246 56.3265 250.115 56.3265C247.983 56.3265 246.171 55.5671 244.603 53.9993C243.035 52.4315 242.269 50.6371 242.269 48.512C242.269 46.3868 243.035 44.5679 244.609 42.9695C246.177 41.3772 247.965 40.6055 250.084 40.6055C252.203 40.6055 253.973 41.3711 255.51 42.945C257.059 44.5312 257.813 46.3501 257.813 48.4936C257.813 50.6371 257.066 52.4499 255.535 54.0177L255.541 54.0115Z" fill="#A7A9AC"/>
<path d="M222.096 32.7236H225.06V32.0254C225.06 29.5267 223.033 27.5057 220.541 27.5057H217.577V28.1978C217.577 30.6965 219.604 32.7236 222.096 32.7236Z" fill="#A7A9AC"/>
<path d="M71.6415 32.7236H74.6057V32.0254C74.6057 29.5267 72.5785 27.5057 70.086 27.5057H67.1218V28.1978C67.1218 30.6965 69.149 32.7236 71.6415 32.7236Z" fill="#A7A9AC"/>
<path d="M194.016 30.7271L201.506 25.4297L201.102 24.8601C199.657 22.8207 196.84 22.343 194.8 23.7884L187.31 29.0858L187.715 29.6493C189.16 31.6886 191.983 32.1725 194.016 30.7271Z" fill="#A7A9AC"/>
<path d="M145.255 32.699H154.429V31.9947C154.429 29.496 152.402 27.475 149.903 27.4811H140.729V28.1793C140.729 30.678 142.756 32.7051 145.255 32.699Z" fill="#A7A9AC"/>
<path d="M152.708 40.5566V50.1656C152.708 51.8252 152.139 53.2338 150.975 54.477C149.72 55.6835 148.323 56.2837 146.707 56.3082C145.096 56.2837 143.693 55.6896 142.438 54.477C141.268 53.2399 140.705 51.8252 140.705 50.1656V45.4315V36.0247H140.001C137.502 36.0247 135.475 38.0579 135.475 40.5505V61.6057C135.475 63.002 135.034 64.1166 134.133 65.0108C133.386 65.7518 132.535 66.1682 131.537 66.303H131.469C130.042 66.4867 128.965 67.7054 128.965 69.1446V71.3922H130.833C133.533 71.3922 135.873 70.4736 137.784 68.6547C139.725 66.8174 140.705 64.4473 140.705 61.6118V60.2338C140.705 60.2338 140.705 59.995 140.705 59.701C140.833 59.7929 140.907 59.848 140.907 59.848C141.023 59.9154 141.146 59.9766 141.262 60.044C141.287 60.0562 141.317 60.0746 141.342 60.0869C141.623 60.2338 141.911 60.3747 142.211 60.5033C142.328 60.5523 142.456 60.5952 142.579 60.638C142.72 60.687 142.854 60.7422 142.995 60.785C143.197 60.8524 143.399 60.9136 143.608 60.9626C143.608 60.9626 143.62 60.9626 143.626 60.9626C144.336 61.1464 145.078 61.2627 145.849 61.3117C145.984 61.324 146.125 61.324 146.266 61.3301C146.382 61.3301 146.492 61.3485 146.609 61.3485C146.639 61.3485 146.67 61.3485 146.7 61.3485C146.731 61.3485 146.762 61.3485 146.792 61.3485C146.909 61.3485 147.019 61.3362 147.135 61.3301C147.276 61.3301 147.417 61.3178 147.552 61.3117C148.323 61.2627 149.064 61.1525 149.775 60.9626C149.775 60.9626 149.787 60.9626 149.793 60.9626C150.001 60.9075 150.204 60.8463 150.406 60.785C150.546 60.7422 150.687 60.687 150.828 60.638C150.951 60.5952 151.073 60.5584 151.19 60.5033C152.5 59.9093 154.037 58.7763 154.723 58.0781C156.848 55.9162 157.926 53.2522 157.926 50.1656V36.0308H157.222C154.723 36.0308 152.696 38.064 152.696 40.5566H152.708Z" fill="#A7A9AC"/>
<path d="M86.8725 31.9152V50.1655C86.8725 51.8252 86.303 53.2338 85.1394 54.477C83.8839 55.6835 82.4876 56.2836 80.8708 56.3081C79.2601 56.2836 77.8576 55.6896 76.6021 54.477C75.4324 53.2399 74.869 51.8252 74.869 50.1655V45.4315V36.0246H74.1647C71.666 36.0246 69.6389 38.0517 69.6389 40.5504V61.6056C69.6389 63.002 69.1979 64.1166 68.2977 65.0107C67.5505 65.7517 66.6992 66.1682 65.701 66.3029H65.6336C64.2067 66.4805 63.1288 67.6931 63.1288 69.1323V71.3922H64.9967C67.6975 71.3922 70.037 70.4735 71.9477 68.6546C73.8891 66.8174 74.869 64.4473 74.869 61.6118V60.2338C74.869 60.2338 74.869 59.9949 74.869 59.701C74.9976 59.7929 75.0711 59.848 75.0711 59.848C75.1874 59.9153 75.3099 59.9766 75.4263 60.0439C75.4569 60.0562 75.4814 60.0746 75.512 60.0868C75.7937 60.2338 76.0816 60.3747 76.3817 60.5033C76.498 60.5523 76.6267 60.5951 76.7491 60.638C76.89 60.687 77.0247 60.7421 77.1656 60.785C77.3677 60.8523 77.5698 60.9136 77.778 60.9626C77.778 60.9626 77.7903 60.9626 77.7964 60.9626C78.5068 61.1463 79.2478 61.2627 80.0195 61.3117C80.1542 61.3239 80.2951 61.3239 80.4359 61.33C80.5523 61.33 80.6625 61.3484 80.7789 61.3484C80.8095 61.3484 80.8401 61.3484 80.8708 61.3484C80.9014 61.3484 80.932 61.3484 80.9626 61.3484C81.079 61.3484 81.1892 61.3362 81.3056 61.33C81.4464 61.33 81.5873 61.3178 81.722 61.3117C82.4937 61.2627 83.2347 61.1524 83.9451 60.9626C83.9451 60.9626 83.9574 60.9626 83.9635 60.9626C84.1717 60.9075 84.3738 60.8462 84.5759 60.785C84.7168 60.7421 84.8577 60.687 84.9985 60.638C85.17 60.5706 85.4395 60.4543 85.6109 60.3869C86.8664 59.7683 88.2566 58.7334 88.8997 58.0781C91.0248 55.9162 92.1027 53.2521 92.1027 50.1655V27.3894H91.3984C88.8997 27.3894 86.8725 29.4165 86.8725 31.9152Z" fill="#A7A9AC"/>
<path d="M115.779 37.3903C113.752 36.1838 111.511 35.6204 109.159 35.6204C105.601 35.6204 102.514 36.9003 99.9785 39.4174C97.437 41.9406 96.1509 45.0088 96.1509 48.5364C96.1509 52.064 97.437 55.1384 99.9785 57.6554C102.514 60.1725 105.607 61.4525 109.159 61.4525C111.413 61.4525 113.611 60.8523 115.7 59.6642C116.067 59.456 116.422 59.2294 116.765 58.9905C116.508 60.8033 115.846 62.2548 114.781 63.3939C113.385 64.8759 111.627 65.5925 109.392 65.5925C107.922 65.5925 106.452 65.1699 105.007 64.3431C104.786 64.2145 104.553 64.0675 104.296 63.8838L103.714 63.5899C103.084 63.3081 102.398 63.1611 101.706 63.1611C100.603 63.1611 99.556 63.5225 98.6802 64.2023L98.1535 64.6249L98.5393 65.1699C98.8945 65.6721 100.897 68.2565 105.533 70.0081C105.539 70.0081 105.552 70.0142 105.558 70.0203C106.936 70.4368 108.185 70.6389 109.385 70.6389C113.146 70.6389 116.245 69.3895 118.602 66.9214C120.544 64.8882 121.683 62.2486 122.014 59.0518C122.026 58.9538 122.081 54.2075 122.081 50.1471C122.081 44.4883 119.882 39.8339 115.773 37.3903H115.779ZM114.665 54.0973C113.146 55.6589 111.364 56.4122 109.232 56.4122C107.101 56.4122 105.282 55.6467 103.714 54.0789C102.147 52.5111 101.381 50.6922 101.381 48.5364C101.381 46.3807 102.147 44.5618 103.714 42.994C105.282 41.4262 107.089 40.6606 109.232 40.6606C111.376 40.6606 113.146 41.42 114.665 42.9756C116.202 44.5495 116.943 46.3684 116.943 48.5364C116.943 50.7044 116.196 52.5233 114.665 54.0973Z" fill="#A7A9AC"/>
<path d="M131.335 56.8777V27.42H130.63C128.132 27.42 126.104 29.4533 126.104 31.9459V61.4035H126.809C129.307 61.4035 131.335 59.3703 131.335 56.8777Z" fill="#A7A9AC"/>
<path d="M186.563 82.4524V80.8969H185.271C183.807 80.8969 182.497 81.2949 181.358 82.0727C180.782 81.3562 179.9 80.8969 178.914 80.8969H178.43V98.0019H178.914C180.641 98.0019 182.05 96.5933 182.05 94.8663V87.6764C182.05 86.7088 182.356 85.9371 182.98 85.3186C183.501 84.8041 184.089 84.5163 184.781 84.4244H184.824C185.816 84.2958 186.563 83.4507 186.563 82.4585V82.4524Z" fill="#A7A9AC"/>
<path d="M88.0116 73.8661H87.3134C86.4927 73.8661 85.7272 74.2642 85.2556 74.9378L76.4061 88.6256L67.679 75.0726C67.1523 74.3193 66.2888 73.8661 65.3702 73.8661H64.6659C63.8514 73.8661 63.1899 74.5275 63.1899 75.342V98.2774H63.6799C65.3947 98.2774 66.7849 96.881 66.7849 95.1724V80.9886L76.2958 95.1663L85.8803 80.9641V95.0744C85.8803 96.8443 87.3195 98.2774 89.0833 98.2774H89.5732V75.44C89.5732 74.5704 88.869 73.8661 87.9993 73.8661H88.0116Z" fill="#A7A9AC"/>
<path d="M119.466 80.5357C117.641 80.5357 116.091 80.9888 114.848 81.8769C114.542 81.2951 113.923 80.897 113.219 80.897H111.394V98.2838H111.884C113.636 98.2838 115.056 96.8629 115.056 95.1114V88.3747C115.056 87.2234 115.491 86.2373 116.385 85.3738C117.292 84.498 118.296 84.0694 119.466 84.0694C120.636 84.0694 121.566 84.4858 122.375 85.3371C123.202 86.2067 123.606 87.205 123.606 88.3747V95.1114C123.606 96.8629 125.027 98.2838 126.778 98.2838H127.268V88.3747C127.268 86.2128 126.515 84.345 125.021 82.8261C123.526 81.3012 121.652 80.5295 119.46 80.5295L119.466 80.5357Z" fill="#A7A9AC"/>
<path d="M173.567 94.7131C173.029 94.5783 172.563 94.3089 172.134 93.8863C171.504 93.2678 171.191 92.49 171.191 91.5162V84.3998H175.723V83.9099C175.723 82.2441 174.357 80.8906 172.679 80.8906H171.191V77.0507C171.191 75.3114 169.77 73.8967 168.019 73.8967H167.529V91.5162C167.529 93.4882 168.221 95.1418 169.574 96.4217C170.916 97.6895 172.551 98.3264 174.449 98.3264H175.754V97.3894C175.754 96.1155 174.854 95.0132 173.561 94.7131H173.567Z" fill="#A7A9AC"/>
<path d="M248.136 94.7255H248.087C247.389 94.6275 246.789 94.3335 246.268 93.8129C245.638 93.1883 245.325 92.4043 245.325 91.4245V77.106C245.325 75.3544 243.904 73.9336 242.153 73.9336H241.663V91.4245C241.663 93.4087 242.355 95.0684 243.708 96.3606C245.05 97.6345 246.685 98.2775 248.583 98.2775H249.888V96.7036C249.888 95.6931 249.135 94.8418 248.13 94.7193L248.136 94.7255Z" fill="#A7A9AC"/>
<path d="M143.154 82.4524C142.854 82.2197 142.53 82.0054 142.193 81.8094C140.76 80.9887 139.198 80.5662 137.551 80.5662C135.058 80.5662 132.89 81.4603 131.114 83.2302C129.332 85.0001 128.432 87.1497 128.432 89.6239C128.432 92.0981 129.332 94.2477 131.114 96.0176C132.89 97.7814 135.058 98.6817 137.551 98.6817C139.131 98.6817 140.674 98.2591 142.138 97.4262C142.395 97.2793 142.646 97.12 142.885 96.9547C142.701 98.2285 142.242 99.2451 141.495 100.041C140.515 101.076 139.284 101.585 137.716 101.585C136.687 101.585 135.652 101.291 134.642 100.709C134.489 100.617 134.323 100.513 134.146 100.384L133.797 100.109L133.735 100.176C133.294 99.98 132.811 99.8759 132.327 99.8759C131.555 99.8759 130.82 100.127 130.202 100.605L129.834 100.899L130.104 101.285C130.355 101.634 131.757 103.453 135.015 104.677C135.983 104.971 136.865 105.112 137.71 105.112C140.343 105.112 142.518 104.236 144.171 102.509C145.806 100.801 146.633 98.4735 146.633 95.6012V80.8969H145.439C144.398 80.8969 143.51 81.5399 143.142 82.4524H143.154ZM141.409 93.519C140.343 94.6152 139.094 95.1419 137.6 95.1419C136.105 95.1419 134.832 94.6091 133.729 93.5067C132.627 92.4044 132.094 91.1366 132.094 89.6239C132.094 88.1112 132.627 86.8374 133.729 85.7411C134.832 84.6388 136.093 84.106 137.6 84.106C139.106 84.106 140.343 84.6388 141.409 85.7289C142.487 86.8313 143.008 88.1051 143.008 89.6239C143.008 91.1427 142.487 92.4166 141.409 93.519Z" fill="#A7A9AC"/>
<path d="M105.594 82.4217C105.319 82.2134 105.019 82.0113 104.706 81.8337C103.23 80.9763 101.656 80.5415 100.027 80.5415C97.5348 80.5415 95.3668 81.4356 93.5908 83.2056C91.8086 84.9755 90.9083 87.1251 90.9083 89.5993C90.9083 92.0735 91.8086 94.2231 93.5908 95.993C95.3668 97.7568 97.5348 98.657 100.027 98.657C101.656 98.657 103.206 98.2345 104.633 97.3955C104.97 97.1934 105.294 96.9729 105.6 96.7402C105.968 97.6527 106.862 98.3018 107.909 98.3018H109.085V80.9151H107.854C106.838 80.9151 105.962 81.5459 105.6 82.44L105.594 82.4217ZM103.886 93.4882C102.82 94.5844 101.571 95.1111 100.076 95.1111C98.582 95.1111 97.3082 94.5783 96.2058 93.4759C95.1034 92.3736 94.5706 91.112 94.5706 89.6238C94.5706 88.1356 95.1096 86.8556 96.2119 85.7288C97.3143 84.608 98.5698 84.0691 100.058 84.0691C101.546 84.0691 102.789 84.608 103.867 85.7104C104.951 86.825 105.484 88.0988 105.484 89.6054C105.484 91.112 104.963 92.3858 103.886 93.4882Z" fill="#A7A9AC"/>
<path d="M239.685 83.6895C237.811 81.6195 235.533 80.5662 232.905 80.5662C230.278 80.5662 228.085 81.4603 226.303 83.2302C224.521 85.0001 223.621 87.1252 223.621 89.5566C223.621 91.9879 224.527 94.1314 226.309 95.938C228.098 97.7569 230.241 98.6756 232.673 98.6756H232.966C235.551 98.6756 237.774 97.6712 239.581 95.687L239.715 95.54L239.734 95.5155C239.734 95.5155 239.746 95.5032 239.752 95.491L240.138 95.0439L239.789 94.7193C239.299 94.2661 238.638 93.966 237.762 93.8068C237.168 93.6966 236.39 93.8864 235.428 94.3764C234.559 94.7683 233.603 95.1235 232.507 95.1235C231.864 95.1235 231.178 94.9275 230.456 94.5356L240.518 84.602L239.679 83.6711L239.685 83.6895ZM227.896 92.0369C227.485 91.2591 227.289 90.4078 227.289 89.4586C227.289 88.0561 227.822 86.8374 228.924 85.735C230.027 84.6327 231.239 84.0999 232.63 84.0999C233.585 84.0999 234.449 84.3081 235.245 84.7368L227.896 92.0369Z" fill="#A7A9AC"/>
<path d="M156.94 80.5355C154.435 80.5355 152.267 81.4297 150.485 83.1996C148.703 84.9695 147.803 87.0946 147.803 89.5259C147.803 91.9573 148.691 94.0885 150.436 95.9013C152.194 97.7263 154.331 98.645 156.793 98.645H157.087C159.568 98.645 161.711 97.7263 163.45 95.9135C165.171 94.113 166.047 91.9756 166.047 89.5443C166.047 87.113 165.153 84.9695 163.383 83.2057C161.613 81.4358 159.451 80.5417 156.946 80.5417L156.94 80.5355ZM160.78 93.4883C159.715 94.5846 158.465 95.1113 156.971 95.1113C155.477 95.1113 154.203 94.5784 153.1 93.4761C151.998 92.3737 151.465 91.1121 151.465 89.6239C151.465 88.1357 152.004 86.8558 153.106 85.7289C154.209 84.6082 155.464 84.0692 156.952 84.0692C158.441 84.0692 159.684 84.6082 160.762 85.7105C161.846 86.8251 162.379 88.099 162.379 89.6055C162.379 91.1121 161.858 92.386 160.78 93.4883Z" fill="#A7A9AC"/>
<path d="M218.703 83.2241L215.696 92.3553C215.421 93.3107 214.906 93.9844 214.135 94.4131C213.363 93.9844 212.848 93.3107 212.573 92.3553L209.566 83.2241C209.064 81.497 207.294 80.5171 205.616 81.0316L205.144 81.1786L209.064 93.4332C209.633 95.3929 210.766 96.826 212.438 97.6957C212.989 97.9835 213.559 98.1856 214.135 98.3142C214.71 98.1856 215.274 97.9835 215.831 97.6957C217.503 96.826 218.642 95.3929 219.205 93.4332L223.125 81.1786L222.653 81.0316C220.975 80.5171 219.205 81.497 218.703 83.2241Z" fill="#A7A9AC"/>
<path d="M200.379 82.4217C200.104 82.2134 199.804 82.0113 199.491 81.8337C198.016 80.9763 196.442 80.5415 194.813 80.5415C192.32 80.5415 190.152 81.4356 188.376 83.2056C186.594 84.9755 185.693 87.1251 185.693 89.5993C185.693 92.0735 186.594 94.2231 188.376 95.993C190.152 97.7568 192.32 98.657 194.813 98.657C196.442 98.657 197.991 98.2345 199.418 97.3955C199.755 97.1934 200.079 96.9729 200.386 96.7402C200.753 97.6527 201.647 98.3018 202.694 98.3018H203.87V80.9151H202.639C201.623 80.9151 200.747 81.5459 200.386 82.44L200.379 82.4217ZM198.665 93.4882C197.599 94.5844 196.35 95.1111 194.855 95.1111C193.361 95.1111 192.087 94.5783 190.985 93.4759C189.882 92.3736 189.35 91.112 189.35 89.6238C189.35 88.1356 189.889 86.8556 190.991 85.7288C192.093 84.608 193.349 84.0691 194.837 84.0691C196.325 84.0691 197.568 84.608 198.646 85.7104C199.73 86.825 200.263 88.0988 200.263 89.6054C200.263 91.112 199.743 92.3858 198.665 93.4882Z" fill="#A7A9AC"/>
<path d="M261.989 89.6423C261.401 88.8339 260.673 88.1541 259.834 87.6274C259.117 87.1803 258.394 86.7516 257.69 86.3597C257.096 86.029 256.588 85.6676 256.171 85.2818C255.847 84.9817 255.847 84.7919 255.847 84.7306C255.847 84.5898 255.877 84.4857 256.043 84.3509C256.245 84.1795 256.447 84.106 256.704 84.106C256.796 84.106 256.894 84.1182 256.992 84.1366C257.029 84.1427 257.145 84.1733 257.237 84.1978C257.329 84.2223 257.408 84.2407 257.427 84.2407C258.296 84.4061 259.197 84.1978 259.901 83.6773C259.907 83.6773 260.673 83.0832 260.642 82.6729L260.63 82.5137L260.324 82.1462C259.368 81.1051 258.192 80.5723 256.833 80.5723C255.473 80.5723 254.432 80.952 253.568 81.693C252.644 82.4892 252.178 83.4813 252.178 84.651C252.178 85.7411 252.533 86.7149 253.226 87.5294C253.807 88.2215 254.518 88.8094 255.332 89.2871C256.018 89.6913 256.71 90.1016 257.408 90.5119C257.978 90.8488 258.468 91.2591 258.86 91.7368C259.16 92.092 259.295 92.5207 259.295 93.0841C259.295 93.5741 259.062 94.0089 258.56 94.4621C258.027 94.9398 257.378 95.1786 256.569 95.1786C255.669 95.1786 254.787 94.6519 253.96 93.6108C252.95 92.337 252.38 91.7919 252.246 91.6878L251.872 91.4L251.572 91.7613C251.07 92.3615 250.794 93.078 250.776 93.8374C250.733 95.6502 252.215 96.9914 252.344 97.1078C252.711 97.4446 253.158 97.7876 253.648 98.0325C254.585 98.5102 255.589 98.7062 256.667 98.7062C258.382 98.7062 259.87 98.1305 261.089 96.9914C262.332 95.8278 262.963 94.4008 262.963 92.735C262.963 91.5837 262.632 90.5426 261.977 89.6362L261.989 89.6423Z" fill="#A7A9AC"/>
</svg>
